<?xml version="1.0" encoding="utf-8" standalone="no"?>
<!DOCTYPE svg PUBLIC "-//W3C//DTD SVG 1.1//EN"
  "http://www.w3.org/Graphics/SVG/1.1/DTD/svg11.dtd">
<!-- Created with matplotlib (http://matplotlib.org/) -->
<svg height="345pt" version="1.1" viewBox="0 0 460 345" width="460pt" xmlns="http://www.w3.org/2000/svg" xmlns:xlink="http://www.w3.org/1999/xlink">
 <defs>
  <style type="text/css">
*{stroke-linecap:butt;stroke-linejoin:round;}
  </style>
 </defs>
 <g id="figure_1">
  <g id="patch_1">
   <path d="M 0 345.6 
L 460.8 345.6 
L 460.8 0 
L 0 0 
z
" style="fill:#ffffff;"/>
  </g>
  <g id="axes_1">
   <g id="patch_2">
    <path d="M 57.6 307.584 
L 414.72 307.584 
L 414.72 41.472 
L 57.6 41.472 
z
" style="fill:#ffffff;"/>
   </g>
   <g id="patch_3">
    <path clip-path="url(#p8fc643fdcb)" d="M 332.020754 169.649357 
Q 219.986999 169.920632 109.071275 170.1892 
" style="fill:none;stroke:#808080;stroke-linecap:round;"/>
    <path clip-path="url(#p8fc643fdcb)" d="M 113.076106 172.179509 
L 109.071275 170.1892 
L 113.06642 168.179521 
L 113.076106 172.179509 
z
" style="fill:#808080;stroke:#808080;stroke-linecap:round;"/>
   </g>
   <g id="patch_4">
    <path clip-path="url(#p8fc643fdcb)" d="M 332.020754 169.649357 
Q 353.512986 127.059258 374.501524 85.467303 
" style="fill:none;stroke:#808080;stroke-linecap:round;"/>
    <path clip-path="url(#p8fc643fdcb)" d="M 370.91392 88.13734 
L 374.501524 85.467303 
L 374.484991 89.939408 
L 370.91392 88.13734 
z
" style="fill:#808080;stroke:#808080;stroke-linecap:round;"/>
   </g>
   <g id="patch_5">
    <path clip-path="url(#p8fc643fdcb)" d="M 332.020754 169.649357 
Q 340.055725 216.222994 347.900618 261.694874 
" style="fill:none;stroke:#808080;stroke-linecap:round;"/>
    <path clip-path="url(#p8fc643fdcb)" d="M 349.191461 257.413084 
L 347.900618 261.694874 
L 345.249692 258.093126 
L 349.191461 257.413084 
z
" style="fill:#808080;stroke:#808080;stroke-linecap:round;"/>
   </g>
   <g id="patch_6">
    <path clip-path="url(#p8fc643fdcb)" d="M 332.020754 169.649357 
Q 280.543132 150.272789 230.111873 131.29008 
" style="fill:none;stroke:#808080;stroke-linecap:round;"/>
    <path clip-path="url(#p8fc643fdcb)" d="M 233.150898 134.570983 
L 230.111873 131.29008 
L 234.560011 130.827402 
L 233.150898 134.570983 
z
" style="fill:#808080;stroke:#808080;stroke-linecap:round;"/>
   </g>
   <g id="patch_7">
    <path clip-path="url(#p8fc643fdcb)" d="M 161.879902 242.166321 
Q 132.14492 212.984177 103.20789 184.585149 
" style="fill:none;stroke:#808080;stroke-linecap:round;"/>
    <path clip-path="url(#p8fc643fdcb)" d="M 104.66185 188.814333 
L 103.20789 184.585149 
L 107.463613 185.959492 
L 104.66185 188.814333 
z
" style="fill:#808080;stroke:#808080;stroke-linecap:round;"/>
   </g>
   <g id="patch_8">
    <path clip-path="url(#p8fc643fdcb)" d="M 161.879902 242.166321 
Q 247.154021 260.035615 331.333874 277.675604 
" style="fill:none;stroke:#808080;stroke-linecap:round;"/>
    <path clip-path="url(#p8fc643fdcb)" d="M 327.8291 274.897734 
L 331.333874 277.675604 
L 327.008714 278.812701 
L 327.8291 274.897734 
z
" style="fill:#808080;stroke:#808080;stroke-linecap:round;"/>
   </g>
   <g id="patch_9">
    <path clip-path="url(#p8fc643fdcb)" d="M 161.879902 242.166321 
Q 182.695203 192.06327 203.081562 142.992695 
" style="fill:none;stroke:#808080;stroke-linecap:round;"/>
    <path clip-path="url(#p8fc643fdcb)" d="M 199.69998 145.919282 
L 203.081562 142.992695 
L 203.393882 147.453912 
L 199.69998 145.919282 
z
" style="fill:#808080;stroke:#808080;stroke-linecap:round;"/>
   </g>
   <g id="patch_10">
    <path clip-path="url(#p8fc643fdcb)" d="M 88.589752 170.238794 
Q 200.623507 169.967518 311.539231 169.69895 
" style="fill:none;stroke:#808080;stroke-linecap:round;"/>
    <path clip-path="url(#p8fc643fdcb)" d="M 307.5344 167.708641 
L 311.539231 169.69895 
L 307.544086 171.70863 
L 307.5344 167.708641 
z
" style="fill:#808080;stroke:#808080;stroke-linecap:round;"/>
   </g>
   <g id="patch_11">
    <path clip-path="url(#p8fc643fdcb)" d="M 88.589752 170.238794 
Q 118.324735 199.420938 147.261764 227.819966 
" style="fill:none;stroke:#808080;stroke-linecap:round;"/>
    <path clip-path="url(#p8fc643fdcb)" d="M 145.807805 223.590781 
L 147.261764 227.819966 
L 143.006041 226.445623 
L 145.807805 223.590781 
z
" style="fill:#808080;stroke:#808080;stroke-linecap:round;"/>
   </g>
   <g id="patch_12">
    <path clip-path="url(#p8fc643fdcb)" d="M 88.589752 170.238794 
Q 140.705274 150.574994 191.774746 131.305881 
" style="fill:none;stroke:#808080;stroke-linecap:round;"/>
    <path clip-path="url(#p8fc643fdcb)" d="M 187.326243 130.846725 
L 191.774746 131.305881 
L 188.738319 134.589189 
L 187.326243 130.846725 
z
" style="fill:#808080;stroke:#808080;stroke-linecap:round;"/>
   </g>
   <g id="patch_13">
    <path clip-path="url(#p8fc643fdcb)" d="M 383.730248 67.179195 
Q 362.238016 109.769294 341.249478 151.361248 
" style="fill:none;stroke:#808080;stroke-linecap:round;"/>
    <path clip-path="url(#p8fc643fdcb)" d="M 344.837082 148.691212 
L 341.249478 151.361248 
L 341.266011 146.889143 
L 344.837082 148.691212 
z
" style="fill:#808080;stroke:#808080;stroke-linecap:round;"/>
   </g>
   <g id="patch_14">
    <path clip-path="url(#p8fc643fdcb)" d="M 383.730248 67.179195 
Q 306.533369 92.598126 230.398437 117.667385 
" style="fill:none;stroke:#808080;stroke-linecap:round;"/>
    <path clip-path="url(#p8fc643fdcb)" d="M 234.823283 118.31603 
L 230.398437 117.667385 
L 233.57226 114.516695 
L 234.823283 118.31603 
z
" style="fill:#808080;stroke:#808080;stroke-linecap:round;"/>
   </g>
   <g id="patch_15">
    <path clip-path="url(#p8fc643fdcb)" d="M 351.382442 281.876805 
Q 343.347472 235.303168 335.502578 189.831288 
" style="fill:none;stroke:#808080;stroke-linecap:round;"/>
    <path clip-path="url(#p8fc643fdcb)" d="M 334.211735 194.113078 
L 335.502578 189.831288 
L 338.153504 193.433036 
L 334.211735 194.113078 
z
" style="fill:#808080;stroke:#808080;stroke-linecap:round;"/>
   </g>
   <g id="patch_16">
    <path clip-path="url(#p8fc643fdcb)" d="M 351.382442 281.876805 
Q 266.108324 264.007511 181.928471 246.367523 
" style="fill:none;stroke:#808080;stroke-linecap:round;"/>
    <path clip-path="url(#p8fc643fdcb)" d="M 185.433245 249.145392 
L 181.928471 246.367523 
L 186.253631 245.230425 
L 185.433245 249.145392 
z
" style="fill:#808080;stroke:#808080;stroke-linecap:round;"/>
   </g>
   <g id="patch_17">
    <path clip-path="url(#p8fc643fdcb)" d="M 210.941278 124.074123 
Q 262.4189 143.45069 312.850159 162.433399 
" style="fill:none;stroke:#808080;stroke-linecap:round;"/>
    <path clip-path="url(#p8fc643fdcb)" d="M 309.811134 159.152496 
L 312.850159 162.433399 
L 308.402022 162.896078 
L 309.811134 159.152496 
z
" style="fill:#808080;stroke:#808080;stroke-linecap:round;"/>
   </g>
   <g id="patch_18">
    <path clip-path="url(#p8fc643fdcb)" d="M 210.941278 124.074123 
Q 190.125977 174.177174 169.739619 223.247749 
" style="fill:none;stroke:#808080;stroke-linecap:round;"/>
    <path clip-path="url(#p8fc643fdcb)" d="M 173.1212 220.321162 
L 169.739619 223.247749 
L 169.427299 218.786532 
L 173.1212 220.321162 
z
" style="fill:#808080;stroke:#808080;stroke-linecap:round;"/>
   </g>
   <g id="patch_19">
    <path clip-path="url(#p8fc643fdcb)" d="M 210.941278 124.074123 
Q 158.825756 143.737923 107.756285 163.007035 
" style="fill:none;stroke:#808080;stroke-linecap:round;"/>
    <path clip-path="url(#p8fc643fdcb)" d="M 112.204787 163.466192 
L 107.756285 163.007035 
L 110.792711 159.723727 
L 112.204787 163.466192 
z
" style="fill:#808080;stroke:#808080;stroke-linecap:round;"/>
   </g>
   <g id="patch_20">
    <path clip-path="url(#p8fc643fdcb)" d="M 210.941278 124.074123 
Q 288.138157 98.655192 364.273089 73.585933 
" style="fill:none;stroke:#808080;stroke-linecap:round;"/>
    <path clip-path="url(#p8fc643fdcb)" d="M 359.848243 72.937288 
L 364.273089 73.585933 
L 361.099266 76.736622 
L 359.848243 72.937288 
z
" style="fill:#808080;stroke:#808080;stroke-linecap:round;"/>
   </g>
   <g id="patch_21">
    <path clip-path="url(#p8fc643fdcb)" d="M 332.020754 169.649357 
Q 214.634459 169.933593 98.366194 170.215121 
" style="fill:none;stroke:#808080;stroke-linecap:round;"/>
    <path clip-path="url(#p8fc643fdcb)" d="M 102.371025 172.20543 
L 98.366194 170.215121 
L 102.36134 168.205442 
L 102.371025 172.20543 
z
" style="fill:#808080;stroke:#808080;stroke-linecap:round;"/>
   </g>
   <g id="patch_22">
    <path clip-path="url(#p8fc643fdcb)" d="M 332.020754 169.649357 
Q 355.924244 122.280986 379.37441 75.810945 
" style="fill:none;stroke:#808080;stroke-linecap:round;stroke-width:0.9;"/>
    <path clip-path="url(#p8fc643fdcb)" d="M 375.786806 78.480982 
L 379.37441 75.810945 
L 379.357877 80.283051 
L 375.786806 78.480982 
z
" style="fill:#808080;stroke:#808080;stroke-linecap:round;stroke-width:0.9;"/>
   </g>
   <g id="patch_23">
    <path clip-path="url(#p8fc643fdcb)" d="M 332.020754 169.649357 
Q 340.965667 221.497356 349.815542 272.794476 
" style="fill:none;stroke:#808080;stroke-linecap:round;stroke-width:0.5;"/>
    <path clip-path="url(#p8fc643fdcb)" d="M 351.106385 268.512686 
L 349.815542 272.794476 
L 347.164616 269.192727 
L 351.106385 268.512686 
z
" style="fill:#808080;stroke:#808080;stroke-linecap:round;stroke-width:0.5;"/>
   </g>
   <g id="patch_24">
    <path clip-path="url(#p8fc643fdcb)" d="M 332.020754 169.649357 
Q 275.532641 148.386802 226.369068 129.88126 
" style="fill:none;stroke:#808080;stroke-linecap:round;stroke-width:7;"/>
    <path clip-path="url(#p8fc643fdcb)" d="M 229.408093 133.162163 
L 226.369068 129.88126 
L 230.817206 129.418582 
L 229.408093 133.162163 
z
" style="fill:#808080;stroke:#808080;stroke-linecap:round;stroke-width:7;"/>
   </g>
   <g id="patch_25">
    <path clip-path="url(#p8fc643fdcb)" d="M 161.879902 242.166321 
Q 128.324743 209.235024 95.727125 177.243468 
" style="fill:none;stroke:#808080;stroke-linecap:round;stroke-width:1.2;"/>
    <path clip-path="url(#p8fc643fdcb)" d="M 97.181085 181.472652 
L 95.727125 177.243468 
L 99.982849 178.617811 
L 97.181085 181.472652 
z
" style="fill:#808080;stroke:#808080;stroke-linecap:round;stroke-width:1.2;"/>
   </g>
   <g id="patch_26">
    <path clip-path="url(#p8fc643fdcb)" d="M 161.879902 242.166321 
Q 252.393563 261.133567 342.68837 280.054952 
" style="fill:none;stroke:#808080;stroke-linecap:round;stroke-width:0.2;"/>
    <path clip-path="url(#p8fc643fdcb)" d="M 339.183596 277.277082 
L 342.68837 280.054952 
L 338.36321 281.192049 
L 339.183596 277.277082 
z
" style="fill:#808080;stroke:#808080;stroke-linecap:round;stroke-width:0.2;"/>
   </g>
   <g id="patch_27">
    <path clip-path="url(#p8fc643fdcb)" d="M 161.879902 242.166321 
Q 184.749409 187.118735 204.358954 139.917974 
" style="fill:none;stroke:#808080;stroke-linecap:round;stroke-width:7.6;"/>
    <path clip-path="url(#p8fc643fdcb)" d="M 200.977373 142.844561 
L 204.358954 139.917974 
L 204.671274 144.379191 
L 200.977373 142.844561 
z
" style="fill:#808080;stroke:#808080;stroke-linecap:round;stroke-width:7.6;"/>
   </g>
   <g id="patch_28">
    <path clip-path="url(#p8fc643fdcb)" d="M 88.589752 170.238794 
Q 205.976047 169.954558 322.244312 169.673029 
" style="fill:none;stroke:#808080;stroke-linecap:round;"/>
    <path clip-path="url(#p8fc643fdcb)" d="M 318.239481 167.68272 
L 322.244312 169.673029 
L 318.249166 171.682709 
L 318.239481 167.68272 
z
" style="fill:#808080;stroke:#808080;stroke-linecap:round;"/>
   </g>
   <g id="patch_29">
    <path clip-path="url(#p8fc643fdcb)" d="M 88.589752 170.238794 
Q 122.144912 203.17009 154.742529 235.161647 
" style="fill:none;stroke:#808080;stroke-linecap:round;stroke-width:1.2;"/>
    <path clip-path="url(#p8fc643fdcb)" d="M 153.288569 230.932462 
L 154.742529 235.161647 
L 150.486806 233.787304 
L 153.288569 230.932462 
z
" style="fill:#808080;stroke:#808080;stroke-linecap:round;stroke-width:1.2;"/>
   </g>
   <g id="patch_30">
    <path clip-path="url(#p8fc643fdcb)" d="M 88.589752 170.238794 
Q 145.712397 148.685748 202.207411 127.369514 
" style="fill:none;stroke:#808080;stroke-linecap:round;stroke-width:0.6;"/>
    <path clip-path="url(#p8fc643fdcb)" d="M 197.758909 126.910357 
L 202.207411 127.369514 
L 199.170985 130.652822 
L 197.758909 126.910357 
z
" style="fill:#808080;stroke:#808080;stroke-linecap:round;stroke-width:0.6;"/>
   </g>
   <g id="patch_31">
    <path clip-path="url(#p8fc643fdcb)" d="M 383.730248 67.179195 
Q 359.826758 114.547566 336.376592 161.017606 
" style="fill:none;stroke:#808080;stroke-linecap:round;stroke-width:0.9;"/>
    <path clip-path="url(#p8fc643fdcb)" d="M 339.964196 158.34757 
L 336.376592 161.017606 
L 336.393125 156.545501 
L 339.964196 158.34757 
z
" style="fill:#808080;stroke:#808080;stroke-linecap:round;stroke-width:0.9;"/>
   </g>
   <g id="patch_32">
    <path clip-path="url(#p8fc643fdcb)" d="M 383.730248 67.179195 
Q 301.447464 94.272782 222.138129 120.38729 
" style="fill:none;stroke:#808080;stroke-linecap:round;stroke-width:2.8;"/>
    <path clip-path="url(#p8fc643fdcb)" d="M 226.562974 121.035935 
L 222.138129 120.38729 
L 225.311952 117.236601 
L 226.562974 121.035935 
z
" style="fill:#808080;stroke:#808080;stroke-linecap:round;stroke-width:2.8;"/>
   </g>
   <g id="patch_33">
    <path clip-path="url(#p8fc643fdcb)" d="M 351.382442 281.876805 
Q 342.437529 230.028806 333.587654 178.731686 
" style="fill:none;stroke:#808080;stroke-linecap:round;stroke-width:0.5;"/>
    <path clip-path="url(#p8fc643fdcb)" d="M 332.296811 183.013476 
L 333.587654 178.731686 
L 336.23858 182.333435 
L 332.296811 183.013476 
z
" style="fill:#808080;stroke:#808080;stroke-linecap:round;stroke-width:0.5;"/>
   </g>
   <g id="patch_34">
    <path clip-path="url(#p8fc643fdcb)" d="M 351.382442 281.876805 
Q 260.868782 262.909559 170.573975 243.988174 
" style="fill:none;stroke:#808080;stroke-linecap:round;stroke-width:0.2;"/>
    <path clip-path="url(#p8fc643fdcb)" d="M 174.078749 246.766044 
L 170.573975 243.988174 
L 174.899135 242.851077 
L 174.078749 246.766044 
z
" style="fill:#808080;stroke:#808080;stroke-linecap:round;stroke-width:0.2;"/>
   </g>
   <g id="patch_35">
    <path clip-path="url(#p8fc643fdcb)" d="M 210.941278 124.074123 
Q 267.429391 145.336677 316.592964 163.84222 
" style="fill:none;stroke:#808080;stroke-linecap:round;stroke-width:7;"/>
    <path clip-path="url(#p8fc643fdcb)" d="M 313.553939 160.561316 
L 316.592964 163.84222 
L 312.144827 164.304898 
L 313.553939 160.561316 
z
" style="fill:#808080;stroke:#808080;stroke-linecap:round;stroke-width:7;"/>
   </g>
   <g id="patch_36">
    <path clip-path="url(#p8fc643fdcb)" d="M 210.941278 124.074123 
Q 188.071772 179.121708 168.462227 226.322469 
" style="fill:none;stroke:#808080;stroke-linecap:round;stroke-width:7.6;"/>
    <path clip-path="url(#p8fc643fdcb)" d="M 171.843808 223.395883 
L 168.462227 226.322469 
L 168.149907 221.861253 
L 171.843808 223.395883 
z
" style="fill:#808080;stroke:#808080;stroke-linecap:round;stroke-width:7.6;"/>
   </g>
   <g id="patch_37">
    <path clip-path="url(#p8fc643fdcb)" d="M 210.941278 124.074123 
Q 153.818634 145.627169 97.323619 166.943403 
" style="fill:none;stroke:#808080;stroke-linecap:round;stroke-width:0.6;"/>
    <path clip-path="url(#p8fc643fdcb)" d="M 101.772122 167.402559 
L 97.323619 166.943403 
L 100.360046 163.660095 
L 101.772122 167.402559 
z
" style="fill:#808080;stroke:#808080;stroke-linecap:round;stroke-width:0.6;"/>
   </g>
   <g id="patch_38">
    <path clip-path="url(#p8fc643fdcb)" d="M 210.941278 124.074123 
Q 293.224063 96.980535 372.533397 70.866027 
" style="fill:none;stroke:#808080;stroke-linecap:round;stroke-width:2.8;"/>
    <path clip-path="url(#p8fc643fdcb)" d="M 368.108552 70.217383 
L 372.533397 70.866027 
L 369.359574 74.016717 
L 368.108552 70.217383 
z
" style="fill:#808080;stroke:#808080;stroke-linecap:round;stroke-width:2.8;"/>
   </g>
   <g id="matplotlib.axis_1">
    <g id="xtick_1"/>
    <g id="xtick_2"/>
    <g id="xtick_3"/>
    <g id="xtick_4"/>
    <g id="xtick_5"/>
    <g id="xtick_6"/>
    <g id="xtick_7"/>
    <g id="xtick_8"/>
   </g>
   <g id="matplotlib.axis_2">
    <g id="ytick_1"/>
    <g id="ytick_2"/>
    <g id="ytick_3"/>
    <g id="ytick_4"/>
    <g id="ytick_5"/>
   </g>
   <g id="PathCollection_1">
    <defs>
     <path d="M 0 19.364917 
C 5.135636 19.364917 10.061621 17.324507 13.693064 13.693064 
C 17.324507 10.061621 19.364917 5.135636 19.364917 0 
C 19.364917 -5.135636 17.324507 -10.061621 13.693064 -13.693064 
C 10.061621 -17.324507 5.135636 -19.364917 0 -19.364917 
C -5.135636 -19.364917 -10.061621 -17.324507 -13.693064 -13.693064 
C -17.324507 -10.061621 -19.364917 -5.135636 -19.364917 0 
C -19.364917 5.135636 -17.324507 10.061621 -13.693064 13.693064 
C -10.061621 17.324507 -5.135636 19.364917 0 19.364917 
z
" id="m1c900a5277" style="stroke:#1f78b4;"/>
    </defs>
    <g clip-path="url(#p8fc643fdcb)">
     <use style="fill:#1f78b4;stroke:#1f78b4;" x="332.020754" xlink:href="#m1c900a5277" y="169.649357"/>
     <use style="fill:#1f78b4;stroke:#1f78b4;" x="161.879902" xlink:href="#m1c900a5277" y="242.166321"/>
     <use style="fill:#1f78b4;stroke:#1f78b4;" x="88.589752" xlink:href="#m1c900a5277" y="170.238794"/>
     <use style="fill:#1f78b4;stroke:#1f78b4;" x="383.730248" xlink:href="#m1c900a5277" y="67.179195"/>
     <use style="fill:#1f78b4;stroke:#1f78b4;" x="351.382442" xlink:href="#m1c900a5277" y="281.876805"/>
     <use style="fill:#1f78b4;stroke:#1f78b4;" x="210.941278" xlink:href="#m1c900a5277" y="124.074123"/>
    </g>
   </g>
   <g id="PathCollection_2">
    <defs>
     <path d="M 0 19.364917 
C 5.135636 19.364917 10.061621 17.324507 13.693064 13.693064 
C 17.324507 10.061621 19.364917 5.135636 19.364917 0 
C 19.364917 -5.135636 17.324507 -10.061621 13.693064 -13.693064 
C 10.061621 -17.324507 5.135636 -19.364917 0 -19.364917 
C -5.135636 -19.364917 -10.061621 -17.324507 -13.693064 -13.693064 
C -17.324507 -10.061621 -19.364917 -5.135636 -19.364917 0 
C -19.364917 5.135636 -17.324507 10.061621 -13.693064 13.693064 
C -10.061621 17.324507 -5.135636 19.364917 0 19.364917 
z
" id="C0_0_ed764213df"/>
    </defs>
    <g clip-path="url(#p8fc643fdcb)">
     <use style="fill:#00ff00;stroke:#00ff00;" x="332.020754" xlink:href="#C0_0_ed764213df" y="169.649357"/>
    </g>
    <g clip-path="url(#p8fc643fdcb)">
     <use style="fill:#00ff00;stroke:#00ff00;" x="161.879902" xlink:href="#C0_0_ed764213df" y="242.166321"/>
    </g>
    <g clip-path="url(#p8fc643fdcb)">
     <use style="fill:#0000ff;stroke:#0000ff;" x="88.589752" xlink:href="#C0_0_ed764213df" y="170.238794"/>
    </g>
    <g clip-path="url(#p8fc643fdcb)">
     <use style="fill:#0000ff;stroke:#0000ff;" x="383.730248" xlink:href="#C0_0_ed764213df" y="67.179195"/>
    </g>
    <g clip-path="url(#p8fc643fdcb)">
     <use style="fill:#0000ff;stroke:#0000ff;" x="351.382442" xlink:href="#C0_0_ed764213df" y="281.876805"/>
    </g>
    <g clip-path="url(#p8fc643fdcb)">
     <use style="fill:#fe0100;stroke:#fe0100;" x="210.941278" xlink:href="#C0_0_ed764213df" y="124.074123"/>
    </g>
   </g>
   <g id="patch_39">
    <path d="M 57.6 307.584 
L 57.6 41.472 
" style="fill:none;stroke:#000000;stroke-linecap:square;stroke-linejoin:miter;stroke-width:0.8;"/>
   </g>
   <g id="patch_40">
    <path d="M 414.72 307.584 
L 414.72 41.472 
" style="fill:none;stroke:#000000;stroke-linecap:square;stroke-linejoin:miter;stroke-width:0.8;"/>
   </g>
   <g id="patch_41">
    <path d="M 57.6 307.584 
L 414.72 307.584 
" style="fill:none;stroke:#000000;stroke-linecap:square;stroke-linejoin:miter;stroke-width:0.8;"/>
   </g>
   <g id="patch_42">
    <path d="M 57.6 41.472 
L 414.72 41.472 
" style="fill:none;stroke:#000000;stroke-linecap:square;stroke-linejoin:miter;stroke-width:0.8;"/>
   </g>
   <g id="text_1">
    <g clip-path="url(#p8fc643fdcb)">
     <!-- ICL -->
     <defs>
      <path d="M 9.8125 72.90625 
L 19.671875 72.90625 
L 19.671875 0 
L 9.8125 0 
z
" id="DejaVuSans-49"/>
      <path d="M 64.40625 67.28125 
L 64.40625 56.890625 
Q 59.421875 61.53125 53.78125 63.8125 
Q 48.140625 66.109375 41.796875 66.109375 
Q 29.296875 66.109375 22.65625 58.46875 
Q 16.015625 50.828125 16.015625 36.375 
Q 16.015625 21.96875 22.65625 14.328125 
Q 29.296875 6.6875 41.796875 6.6875 
Q 48.140625 6.6875 53.78125 8.984375 
Q 59.421875 11.28125 64.40625 15.921875 
L 64.40625 5.609375 
Q 59.234375 2.09375 53.4375 0.328125 
Q 47.65625 -1.421875 41.21875 -1.421875 
Q 24.65625 -1.421875 15.125 8.703125 
Q 5.609375 18.84375 5.609375 36.375 
Q 5.609375 53.953125 15.125 64.078125 
Q 24.65625 74.21875 41.21875 74.21875 
Q 47.75 74.21875 53.53125 72.484375 
Q 59.328125 70.75 64.40625 67.28125 
z
" id="DejaVuSans-43"/>
      <path d="M 9.8125 72.90625 
L 19.671875 72.90625 
L 19.671875 8.296875 
L 55.171875 8.296875 
L 55.171875 0 
L 9.8125 0 
z
" id="DejaVuSans-4c"/>
     </defs>
     <g transform="translate(322.717942 172.960607)scale(0.12 -0.12)">
      <use xlink:href="#DejaVuSans-49"/>
      <use x="29.492188" xlink:href="#DejaVuSans-43"/>
      <use x="99.316406" xlink:href="#DejaVuSans-4c"/>
     </g>
    </g>
   </g>
   <g id="text_2">
    <g clip-path="url(#p8fc643fdcb)">
     <!-- UoR -->
     <defs>
      <path d="M 8.6875 72.90625 
L 18.609375 72.90625 
L 18.609375 28.609375 
Q 18.609375 16.890625 22.84375 11.734375 
Q 27.09375 6.59375 36.625 6.59375 
Q 46.09375 6.59375 50.34375 11.734375 
Q 54.59375 16.890625 54.59375 28.609375 
L 54.59375 72.90625 
L 64.5 72.90625 
L 64.5 27.390625 
Q 64.5 13.140625 57.4375 5.859375 
Q 50.390625 -1.421875 36.625 -1.421875 
Q 22.796875 -1.421875 15.734375 5.859375 
Q 8.6875 13.140625 8.6875 27.390625 
z
" id="DejaVuSans-55"/>
      <path d="M 30.609375 48.390625 
Q 23.390625 48.390625 19.1875 42.75 
Q 14.984375 37.109375 14.984375 27.296875 
Q 14.984375 17.484375 19.15625 11.84375 
Q 23.34375 6.203125 30.609375 6.203125 
Q 37.796875 6.203125 41.984375 11.859375 
Q 46.1875 17.53125 46.1875 27.296875 
Q 46.1875 37.015625 41.984375 42.703125 
Q 37.796875 48.390625 30.609375 48.390625 
z
M 30.609375 56 
Q 42.328125 56 49.015625 48.375 
Q 55.71875 40.765625 55.71875 27.296875 
Q 55.71875 13.875 49.015625 6.21875 
Q 42.328125 -1.421875 30.609375 -1.421875 
Q 18.84375 -1.421875 12.171875 6.21875 
Q 5.515625 13.875 5.515625 27.296875 
Q 5.515625 40.765625 12.171875 48.375 
Q 18.84375 56 30.609375 56 
z
" id="DejaVuSans-6f"/>
      <path d="M 44.390625 34.1875 
Q 47.5625 33.109375 50.5625 29.59375 
Q 53.5625 26.078125 56.59375 19.921875 
L 66.609375 0 
L 56 0 
L 46.6875 18.703125 
Q 43.0625 26.03125 39.671875 28.421875 
Q 36.28125 30.8125 30.421875 30.8125 
L 19.671875 30.8125 
L 19.671875 0 
L 9.8125 0 
L 9.8125 72.90625 
L 32.078125 72.90625 
Q 44.578125 72.90625 50.734375 67.671875 
Q 56.890625 62.453125 56.890625 51.90625 
Q 56.890625 45.015625 53.6875 40.46875 
Q 50.484375 35.9375 44.390625 34.1875 
z
M 19.671875 64.796875 
L 19.671875 38.921875 
L 32.078125 38.921875 
Q 39.203125 38.921875 42.84375 42.21875 
Q 46.484375 45.515625 46.484375 51.90625 
Q 46.484375 58.296875 42.84375 61.546875 
Q 39.203125 64.796875 32.078125 64.796875 
z
" id="DejaVuSans-52"/>
     </defs>
     <g transform="translate(149.64834 245.477571)scale(0.12 -0.12)">
      <use xlink:href="#DejaVuSans-55"/>
      <use x="73.193359" xlink:href="#DejaVuSans-6f"/>
      <use x="134.375" xlink:href="#DejaVuSans-52"/>
     </g>
    </g>
   </g>
   <g id="text_3">
    <g clip-path="url(#p8fc643fdcb)">
     <!-- CEH -->
     <defs>
      <path d="M 9.8125 72.90625 
L 55.90625 72.90625 
L 55.90625 64.59375 
L 19.671875 64.59375 
L 19.671875 43.015625 
L 54.390625 43.015625 
L 54.390625 34.71875 
L 19.671875 34.71875 
L 19.671875 8.296875 
L 56.78125 8.296875 
L 56.78125 0 
L 9.8125 0 
z
" id="DejaVuSans-45"/>
      <path d="M 9.8125 72.90625 
L 19.671875 72.90625 
L 19.671875 43.015625 
L 55.515625 43.015625 
L 55.515625 72.90625 
L 65.375 72.90625 
L 65.375 0 
L 55.515625 0 
L 55.515625 34.71875 
L 19.671875 34.71875 
L 19.671875 0 
L 9.8125 0 
z
" id="DejaVuSans-48"/>
     </defs>
     <g transform="translate(76.096627 173.550044)scale(0.12 -0.12)">
      <use xlink:href="#DejaVuSans-43"/>
      <use x="69.824219" xlink:href="#DejaVuSans-45"/>
      <use x="133.007812" xlink:href="#DejaVuSans-48"/>
     </g>
    </g>
   </g>
   <g id="text_4">
    <g clip-path="url(#p8fc643fdcb)">
     <!-- ZSL -->
     <defs>
      <path d="M 5.609375 72.90625 
L 62.890625 72.90625 
L 62.890625 65.375 
L 16.796875 8.296875 
L 64.015625 8.296875 
L 64.015625 0 
L 4.5 0 
L 4.5 7.515625 
L 50.59375 64.59375 
L 5.609375 64.59375 
z
" id="DejaVuSans-5a"/>
      <path d="M 53.515625 70.515625 
L 53.515625 60.890625 
Q 47.90625 63.578125 42.921875 64.890625 
Q 37.9375 66.21875 33.296875 66.21875 
Q 25.25 66.21875 20.875 63.09375 
Q 16.5 59.96875 16.5 54.203125 
Q 16.5 49.359375 19.40625 46.890625 
Q 22.3125 44.4375 30.421875 42.921875 
L 36.375 41.703125 
Q 47.40625 39.59375 52.65625 34.296875 
Q 57.90625 29 57.90625 20.125 
Q 57.90625 9.515625 50.796875 4.046875 
Q 43.703125 -1.421875 29.984375 -1.421875 
Q 24.8125 -1.421875 18.96875 -0.25 
Q 13.140625 0.921875 6.890625 3.21875 
L 6.890625 13.375 
Q 12.890625 10.015625 18.65625 8.296875 
Q 24.421875 6.59375 29.984375 6.59375 
Q 38.421875 6.59375 43.015625 9.90625 
Q 47.609375 13.234375 47.609375 19.390625 
Q 47.609375 24.75 44.3125 27.78125 
Q 41.015625 30.8125 33.5 32.328125 
L 27.484375 33.5 
Q 16.453125 35.6875 11.515625 40.375 
Q 6.59375 45.0625 6.59375 53.421875 
Q 6.59375 63.09375 13.40625 68.65625 
Q 20.21875 74.21875 32.171875 74.21875 
Q 37.3125 74.21875 42.625 73.28125 
Q 47.953125 72.359375 53.515625 70.515625 
z
" id="DejaVuSans-53"/>
     </defs>
     <g transform="translate(372.46806 70.490445)scale(0.12 -0.12)">
      <use xlink:href="#DejaVuSans-5a"/>
      <use x="68.505859" xlink:href="#DejaVuSans-53"/>
      <use x="131.982422" xlink:href="#DejaVuSans-4c"/>
     </g>
    </g>
   </g>
   <g id="text_5">
    <g clip-path="url(#p8fc643fdcb)">
     <!-- CEFAS -->
     <defs>
      <path d="M 9.8125 72.90625 
L 51.703125 72.90625 
L 51.703125 64.59375 
L 19.671875 64.59375 
L 19.671875 43.109375 
L 48.578125 43.109375 
L 48.578125 34.8125 
L 19.671875 34.8125 
L 19.671875 0 
L 9.8125 0 
z
" id="DejaVuSans-46"/>
      <path d="M 34.1875 63.1875 
L 20.796875 26.90625 
L 47.609375 26.90625 
z
M 28.609375 72.90625 
L 39.796875 72.90625 
L 67.578125 0 
L 57.328125 0 
L 50.6875 18.703125 
L 17.828125 18.703125 
L 11.1875 0 
L 0.78125 0 
z
" id="DejaVuSans-41"/>
     </defs>
     <g transform="translate(332.045567 285.188055)scale(0.12 -0.12)">
      <use xlink:href="#DejaVuSans-43"/>
      <use x="69.824219" xlink:href="#DejaVuSans-45"/>
      <use x="133.007812" xlink:href="#DejaVuSans-46"/>
      <use x="190.386719" xlink:href="#DejaVuSans-41"/>
      <use x="258.794922" xlink:href="#DejaVuSans-53"/>
     </g>
    </g>
   </g>
   <g id="text_6">
    <g clip-path="url(#p8fc643fdcb)">
     <!-- NonAc -->
     <defs>
      <path d="M 9.8125 72.90625 
L 23.09375 72.90625 
L 55.421875 11.921875 
L 55.421875 72.90625 
L 64.984375 72.90625 
L 64.984375 0 
L 51.703125 0 
L 19.390625 60.984375 
L 19.390625 0 
L 9.8125 0 
z
" id="DejaVuSans-4e"/>
      <path d="M 54.890625 33.015625 
L 54.890625 0 
L 45.90625 0 
L 45.90625 32.71875 
Q 45.90625 40.484375 42.875 44.328125 
Q 39.84375 48.1875 33.796875 48.1875 
Q 26.515625 48.1875 22.3125 43.546875 
Q 18.109375 38.921875 18.109375 30.90625 
L 18.109375 0 
L 9.078125 0 
L 9.078125 54.6875 
L 18.109375 54.6875 
L 18.109375 46.1875 
Q 21.34375 51.125 25.703125 53.5625 
Q 30.078125 56 35.796875 56 
Q 45.21875 56 50.046875 50.171875 
Q 54.890625 44.34375 54.890625 33.015625 
z
" id="DejaVuSans-6e"/>
      <path d="M 48.78125 52.59375 
L 48.78125 44.1875 
Q 44.96875 46.296875 41.140625 47.34375 
Q 37.3125 48.390625 33.40625 48.390625 
Q 24.65625 48.390625 19.8125 42.84375 
Q 14.984375 37.3125 14.984375 27.296875 
Q 14.984375 17.28125 19.8125 11.734375 
Q 24.65625 6.203125 33.40625 6.203125 
Q 37.3125 6.203125 41.140625 7.25 
Q 44.96875 8.296875 48.78125 10.40625 
L 48.78125 2.09375 
Q 45.015625 0.34375 40.984375 -0.53125 
Q 36.96875 -1.421875 32.421875 -1.421875 
Q 20.0625 -1.421875 12.78125 6.34375 
Q 5.515625 14.109375 5.515625 27.296875 
Q 5.515625 40.671875 12.859375 48.328125 
Q 20.21875 56 33.015625 56 
Q 37.15625 56 41.109375 55.140625 
Q 45.0625 54.296875 48.78125 52.59375 
z
" id="DejaVuSans-63"/>
     </defs>
     <g transform="translate(191.576278 127.385373)scale(0.12 -0.12)">
      <use xlink:href="#DejaVuSans-4e"/>
      <use x="74.804688" xlink:href="#DejaVuSans-6f"/>
      <use x="135.986328" xlink:href="#DejaVuSans-6e"/>
      <use x="199.365234" xlink:href="#DejaVuSans-41"/>
      <use x="267.757812" xlink:href="#DejaVuSans-63"/>
     </g>
    </g>
   </g>
   <g id="legend_1">
    <g id="patch_43">
     <path d="M 64.6 93.506375 
L 198.340625 93.506375 
Q 200.340625 93.506375 200.340625 91.506375 
L 200.340625 48.472 
Q 200.340625 46.472 198.340625 46.472 
L 64.6 46.472 
Q 62.6 46.472 62.6 48.472 
L 62.6 91.506375 
Q 62.6 93.506375 64.6 93.506375 
z
" style="fill:#ffffff;opacity:0.8;stroke:#cccccc;stroke-linejoin:miter;"/>
    </g>
    <g id="patch_44">
     <path d="M 66.6 58.070438 
L 86.6 58.070438 
L 86.6 51.070438 
L 66.6 51.070438 
z
" style="fill:#0000ff;stroke:#0000ff;stroke-linejoin:miter;"/>
    </g>
    <g id="text_7">
     <!-- Hosting Partner -->
     <defs>
      <path d="M 44.28125 53.078125 
L 44.28125 44.578125 
Q 40.484375 46.53125 36.375 47.5 
Q 32.28125 48.484375 27.875 48.484375 
Q 21.1875 48.484375 17.84375 46.4375 
Q 14.5 44.390625 14.5 40.28125 
Q 14.5 37.15625 16.890625 35.375 
Q 19.28125 33.59375 26.515625 31.984375 
L 29.59375 31.296875 
Q 39.15625 29.25 43.1875 25.515625 
Q 47.21875 21.78125 47.21875 15.09375 
Q 47.21875 7.46875 41.1875 3.015625 
Q 35.15625 -1.421875 24.609375 -1.421875 
Q 20.21875 -1.421875 15.453125 -0.5625 
Q 10.6875 0.296875 5.421875 2 
L 5.421875 11.28125 
Q 10.40625 8.6875 15.234375 7.390625 
Q 20.0625 6.109375 24.8125 6.109375 
Q 31.15625 6.109375 34.5625 8.28125 
Q 37.984375 10.453125 37.984375 14.40625 
Q 37.984375 18.0625 35.515625 20.015625 
Q 33.0625 21.96875 24.703125 23.78125 
L 21.578125 24.515625 
Q 13.234375 26.265625 9.515625 29.90625 
Q 5.8125 33.546875 5.8125 39.890625 
Q 5.8125 47.609375 11.28125 51.796875 
Q 16.75 56 26.8125 56 
Q 31.78125 56 36.171875 55.265625 
Q 40.578125 54.546875 44.28125 53.078125 
z
" id="DejaVuSans-73"/>
      <path d="M 18.3125 70.21875 
L 18.3125 54.6875 
L 36.8125 54.6875 
L 36.8125 47.703125 
L 18.3125 47.703125 
L 18.3125 18.015625 
Q 18.3125 11.328125 20.140625 9.421875 
Q 21.96875 7.515625 27.59375 7.515625 
L 36.8125 7.515625 
L 36.8125 0 
L 27.59375 0 
Q 17.1875 0 13.234375 3.875 
Q 9.28125 7.765625 9.28125 18.015625 
L 9.28125 47.703125 
L 2.6875 47.703125 
L 2.6875 54.6875 
L 9.28125 54.6875 
L 9.28125 70.21875 
z
" id="DejaVuSans-74"/>
      <path d="M 9.421875 54.6875 
L 18.40625 54.6875 
L 18.40625 0 
L 9.421875 0 
z
M 9.421875 75.984375 
L 18.40625 75.984375 
L 18.40625 64.59375 
L 9.421875 64.59375 
z
" id="DejaVuSans-69"/>
      <path d="M 45.40625 27.984375 
Q 45.40625 37.75 41.375 43.109375 
Q 37.359375 48.484375 30.078125 48.484375 
Q 22.859375 48.484375 18.828125 43.109375 
Q 14.796875 37.75 14.796875 27.984375 
Q 14.796875 18.265625 18.828125 12.890625 
Q 22.859375 7.515625 30.078125 7.515625 
Q 37.359375 7.515625 41.375 12.890625 
Q 45.40625 18.265625 45.40625 27.984375 
z
M 54.390625 6.78125 
Q 54.390625 -7.171875 48.1875 -13.984375 
Q 42 -20.796875 29.203125 -20.796875 
Q 24.46875 -20.796875 20.265625 -20.09375 
Q 16.0625 -19.390625 12.109375 -17.921875 
L 12.109375 -9.1875 
Q 16.0625 -11.328125 19.921875 -12.34375 
Q 23.78125 -13.375 27.78125 -13.375 
Q 36.625 -13.375 41.015625 -8.765625 
Q 45.40625 -4.15625 45.40625 5.171875 
L 45.40625 9.625 
Q 42.625 4.78125 38.28125 2.390625 
Q 33.9375 0 27.875 0 
Q 17.828125 0 11.671875 7.65625 
Q 5.515625 15.328125 5.515625 27.984375 
Q 5.515625 40.671875 11.671875 48.328125 
Q 17.828125 56 27.875 56 
Q 33.9375 56 38.28125 53.609375 
Q 42.625 51.21875 45.40625 46.390625 
L 45.40625 54.6875 
L 54.390625 54.6875 
z
" id="DejaVuSans-67"/>
      <path id="DejaVuSans-20"/>
      <path d="M 19.671875 64.796875 
L 19.671875 37.40625 
L 32.078125 37.40625 
Q 38.96875 37.40625 42.71875 40.96875 
Q 46.484375 44.53125 46.484375 51.125 
Q 46.484375 57.671875 42.71875 61.234375 
Q 38.96875 64.796875 32.078125 64.796875 
z
M 9.8125 72.90625 
L 32.078125 72.90625 
Q 44.34375 72.90625 50.609375 67.359375 
Q 56.890625 61.8125 56.890625 51.125 
Q 56.890625 40.328125 50.609375 34.8125 
Q 44.34375 29.296875 32.078125 29.296875 
L 19.671875 29.296875 
L 19.671875 0 
L 9.8125 0 
z
" id="DejaVuSans-50"/>
      <path d="M 34.28125 27.484375 
Q 23.390625 27.484375 19.1875 25 
Q 14.984375 22.515625 14.984375 16.5 
Q 14.984375 11.71875 18.140625 8.90625 
Q 21.296875 6.109375 26.703125 6.109375 
Q 34.1875 6.109375 38.703125 11.40625 
Q 43.21875 16.703125 43.21875 25.484375 
L 43.21875 27.484375 
z
M 52.203125 31.203125 
L 52.203125 0 
L 43.21875 0 
L 43.21875 8.296875 
Q 40.140625 3.328125 35.546875 0.953125 
Q 30.953125 -1.421875 24.3125 -1.421875 
Q 15.921875 -1.421875 10.953125 3.296875 
Q 6 8.015625 6 15.921875 
Q 6 25.140625 12.171875 29.828125 
Q 18.359375 34.515625 30.609375 34.515625 
L 43.21875 34.515625 
L 43.21875 35.40625 
Q 43.21875 41.609375 39.140625 45 
Q 35.0625 48.390625 27.6875 48.390625 
Q 23 48.390625 18.546875 47.265625 
Q 14.109375 46.140625 10.015625 43.890625 
L 10.015625 52.203125 
Q 14.9375 54.109375 19.578125 55.046875 
Q 24.21875 56 28.609375 56 
Q 40.484375 56 46.34375 49.84375 
Q 52.203125 43.703125 52.203125 31.203125 
z
" id="DejaVuSans-61"/>
      <path d="M 41.109375 46.296875 
Q 39.59375 47.171875 37.8125 47.578125 
Q 36.03125 48 33.890625 48 
Q 26.265625 48 22.1875 43.046875 
Q 18.109375 38.09375 18.109375 28.8125 
L 18.109375 0 
L 9.078125 0 
L 9.078125 54.6875 
L 18.109375 54.6875 
L 18.109375 46.1875 
Q 20.953125 51.171875 25.484375 53.578125 
Q 30.03125 56 36.53125 56 
Q 37.453125 56 38.578125 55.875 
Q 39.703125 55.765625 41.0625 55.515625 
z
" id="DejaVuSans-72"/>
      <path d="M 56.203125 29.59375 
L 56.203125 25.203125 
L 14.890625 25.203125 
Q 15.484375 15.921875 20.484375 11.0625 
Q 25.484375 6.203125 34.421875 6.203125 
Q 39.59375 6.203125 44.453125 7.46875 
Q 49.3125 8.734375 54.109375 11.28125 
L 54.109375 2.78125 
Q 49.265625 0.734375 44.1875 -0.34375 
Q 39.109375 -1.421875 33.890625 -1.421875 
Q 20.796875 -1.421875 13.15625 6.1875 
Q 5.515625 13.8125 5.515625 26.8125 
Q 5.515625 40.234375 12.765625 48.109375 
Q 20.015625 56 32.328125 56 
Q 43.359375 56 49.78125 48.890625 
Q 56.203125 41.796875 56.203125 29.59375 
z
M 47.21875 32.234375 
Q 47.125 39.59375 43.09375 43.984375 
Q 39.0625 48.390625 32.421875 48.390625 
Q 24.90625 48.390625 20.390625 44.140625 
Q 15.875 39.890625 15.1875 32.171875 
z
" id="DejaVuSans-65"/>
     </defs>
     <g transform="translate(94.6 58.070438)scale(0.1 -0.1)">
      <use xlink:href="#DejaVuSans-48"/>
      <use x="75.195312" xlink:href="#DejaVuSans-6f"/>
      <use x="136.376953" xlink:href="#DejaVuSans-73"/>
      <use x="188.476562" xlink:href="#DejaVuSans-74"/>
      <use x="227.685547" xlink:href="#DejaVuSans-69"/>
      <use x="255.46875" xlink:href="#DejaVuSans-6e"/>
      <use x="318.847656" xlink:href="#DejaVuSans-67"/>
      <use x="382.324219" xlink:href="#DejaVuSans-20"/>
      <use x="414.111328" xlink:href="#DejaVuSans-50"/>
      <use x="474.351562" xlink:href="#DejaVuSans-61"/>
      <use x="535.630859" xlink:href="#DejaVuSans-72"/>
      <use x="576.744141" xlink:href="#DejaVuSans-74"/>
      <use x="615.953125" xlink:href="#DejaVuSans-6e"/>
      <use x="679.332031" xlink:href="#DejaVuSans-65"/>
      <use x="740.855469" xlink:href="#DejaVuSans-72"/>
     </g>
    </g>
    <g id="patch_45">
     <path d="M 66.6 72.748563 
L 86.6 72.748563 
L 86.6 65.748563 
L 66.6 65.748563 
z
" style="fill:#ff0000;stroke:#ff0000;stroke-linejoin:miter;"/>
    </g>
    <g id="text_8">
     <!-- Non-Hosting Partner -->
     <defs>
      <path d="M 4.890625 31.390625 
L 31.203125 31.390625 
L 31.203125 23.390625 
L 4.890625 23.390625 
z
" id="DejaVuSans-2d"/>
     </defs>
     <g transform="translate(94.6 72.748563)scale(0.1 -0.1)">
      <use xlink:href="#DejaVuSans-4e"/>
      <use x="74.804688" xlink:href="#DejaVuSans-6f"/>
      <use x="135.986328" xlink:href="#DejaVuSans-6e"/>
      <use x="199.365234" xlink:href="#DejaVuSans-2d"/>
      <use x="235.449219" xlink:href="#DejaVuSans-48"/>
      <use x="310.644531" xlink:href="#DejaVuSans-6f"/>
      <use x="371.826172" xlink:href="#DejaVuSans-73"/>
      <use x="423.925781" xlink:href="#DejaVuSans-74"/>
      <use x="463.134766" xlink:href="#DejaVuSans-69"/>
      <use x="490.917969" xlink:href="#DejaVuSans-6e"/>
      <use x="554.296875" xlink:href="#DejaVuSans-67"/>
      <use x="617.773438" xlink:href="#DejaVuSans-20"/>
      <use x="649.560547" xlink:href="#DejaVuSans-50"/>
      <use x="709.800781" xlink:href="#DejaVuSans-61"/>
      <use x="771.080078" xlink:href="#DejaVuSans-72"/>
      <use x="812.193359" xlink:href="#DejaVuSans-74"/>
      <use x="851.402344" xlink:href="#DejaVuSans-6e"/>
      <use x="914.78125" xlink:href="#DejaVuSans-65"/>
      <use x="976.304688" xlink:href="#DejaVuSans-72"/>
     </g>
    </g>
    <g id="patch_46">
     <path d="M 66.6 87.426688 
L 86.6 87.426688 
L 86.6 80.426688 
L 66.6 80.426688 
z
" style="fill:#00ff00;stroke:#00ff00;stroke-linejoin:miter;"/>
    </g>
    <g id="text_9">
     <!-- University -->
     <defs>
      <path d="M 2.984375 54.6875 
L 12.5 54.6875 
L 29.59375 8.796875 
L 46.6875 54.6875 
L 56.203125 54.6875 
L 35.6875 0 
L 23.484375 0 
z
" id="DejaVuSans-76"/>
      <path d="M 32.171875 -5.078125 
Q 28.375 -14.84375 24.75 -17.8125 
Q 21.140625 -20.796875 15.09375 -20.796875 
L 7.90625 -20.796875 
L 7.90625 -13.28125 
L 13.1875 -13.28125 
Q 16.890625 -13.28125 18.9375 -11.515625 
Q 21 -9.765625 23.484375 -3.21875 
L 25.09375 0.875 
L 2.984375 54.6875 
L 12.5 54.6875 
L 29.59375 11.921875 
L 46.6875 54.6875 
L 56.203125 54.6875 
z
" id="DejaVuSans-79"/>
     </defs>
     <g transform="translate(94.6 87.426688)scale(0.1 -0.1)">
      <use xlink:href="#DejaVuSans-55"/>
      <use x="73.193359" xlink:href="#DejaVuSans-6e"/>
      <use x="136.572266" xlink:href="#DejaVuSans-69"/>
      <use x="164.355469" xlink:href="#DejaVuSans-76"/>
      <use x="223.535156" xlink:href="#DejaVuSans-65"/>
      <use x="285.058594" xlink:href="#DejaVuSans-72"/>
      <use x="326.171875" xlink:href="#DejaVuSans-73"/>
      <use x="378.271484" xlink:href="#DejaVuSans-69"/>
      <use x="406.054688" xlink:href="#DejaVuSans-74"/>
      <use x="445.263672" xlink:href="#DejaVuSans-79"/>
     </g>
    </g>
   </g>
  </g>
 </g>
 <defs>
  <clipPath id="p8fc643fdcb">
   <rect height="266.112" width="357.12" x="57.6" y="41.472"/>
  </clipPath>
 </defs>
</svg>
